<mxfile host="app.diagrams.net" modified="2023-05-22T11:15:38.897Z" agent="Mozilla/5.0 (Macintosh; Intel Mac OS X 10_15_7) AppleWebKit/605.1.15 (KHTML, like Gecko) Version/16.3 Safari/605.1.15" version="21.3.2" etag="v6mTJ6pgmISXXUCpH-C5" type="github">
  <diagram name="페이지-1" id="cJXmIusgj8QksQuK2b0Y">
    <mxGraphModel>
      <root>
        <mxCell id="0" />
        <mxCell id="1" parent="0" />
      </root>
    </mxGraphModel>
  </diagram>
</mxfile>
